<?xml version="1.0" standalone="no"?><!DOCTYPE svg PUBLIC "-//W3C//DTD SVG 1.1//EN" "http://www.w3.org/Graphics/SVG/1.1/DTD/svg11.dtd"><svg t="1644978075318" class="icon" viewBox="0 0 1024 1024" version="1.1" xmlns="http://www.w3.org/2000/svg" p-id="769" xmlns:xlink="http://www.w3.org/1999/xlink" width="200" height="200"><defs><style type="text/css"></style></defs><path d="M680.75 455.74912109L568.25527344 455.74912109 568.25527344 343.25 511.99472656 343.25 511.99472656 455.75791016 399.5 455.75791016 399.5 512.00527344 511.99472656 512.00527344 511.99472656 624.5 568.25527344 624.5 568.25527344 512.00527344 680.75 512.00527344Z" p-id="770"></path><path d="M793.25 174.5L287 174.5c-31.06582031 0-56.25 25.18417969-56.25 56.25l0 506.25c0 31.06669922 25.18417969 56.25 56.25 56.25l506.25 0c31.06669922 0 56.25-25.18330078 56.25-56.25L849.5 230.75C849.5 199.68417969 824.31669922 174.5 793.25 174.5zM793.25 708.875c0 15.53291016-12.59208984 28.125-28.125 28.125L315.125 737c-15.53291016 0-28.125-12.59208984-28.125-28.125L287 258.875c0-15.53291016 12.59208984-28.125 28.125-28.125l450 0c15.53291016 0 28.125 12.59208984 28.125 28.125L793.25 708.875z" p-id="771"></path></svg>