<?xml version="1.0" standalone="no"?><!DOCTYPE svg PUBLIC "-//W3C//DTD SVG 1.1//EN" "http://www.w3.org/Graphics/SVG/1.1/DTD/svg11.dtd"><svg t="1644978102221" class="icon" viewBox="0 0 1024 1024" version="1.1" xmlns="http://www.w3.org/2000/svg" p-id="769" xmlns:xlink="http://www.w3.org/1999/xlink" width="200" height="200"><defs><style type="text/css"></style></defs><path d="M369.86437988 536.71923828h284.27124024c3.39889526 0 6.17980958-2.7809143 6.17980957-6.17980957v-37.07885742c0-3.39889526-2.7809143-6.17980958-6.17980958-6.17980957H369.86437988c-3.39889526 0-6.17980958 2.7809143-6.17980957 6.17980957v37.07885743c0 3.39889526 2.7809143 6.17980958 6.17980958 6.17980956z" p-id="770"></path><path d="M796.27124023 203.00952148H227.72875977c-13.67282868 0-24.71923828 11.04640961-24.71923829 24.71923829v568.54248046c0 13.67282868 11.04640961 24.71923828 24.71923829 24.71923829h568.54248046c13.67282868 0 24.71923828-11.04640961 24.71923829-24.71923829V227.72875977c0-13.67282868-11.04640961-24.71923828-24.71923829-24.71923829z m-30.89904785 562.36267091H258.62780761V258.62780761h506.74438477v506.74438477z" p-id="771"></path></svg>